<svg version="1" xmlns="http://www.w3.org/2000/svg" width="417.333" height="417.333" viewBox="0 0 313.000000 313.000000"><path d="M159.8 39.5c-.2.2-4.1.6-8.8.9-42.8 3.2-91.1 24.9-117.6 52.8-16.2 17-24.9 33.9-29.9 57.8-4.6 22.3-.3 55.5 9.8 75.5 13 25.9 31 38.7 60.7 43.1 2.5.3 5.3.8 6.3 1 1 .2 5.3.6 9.5.9 4.2.4 9.3.9 11.2 1.1 4.5.5 42.4.4 47-.1 1.9-.2 7.1-.7 11.5-1.1 4.4-.3 8.2-.8 8.5-.9.3-.2 3.3-.7 6.5-1 3.3-.4 6.3-.9 6.6-1.1.4-.2 2.4-.6 4.4-1 14-2.2 37.7-9.1 51.9-15.1 10.5-4.4 18.9-8.5 25.5-12.5 3.4-2.1 6.5-3.8 6.7-3.8.3 0 1-.5 1.7-1 .7-.6 4.1-3.2 7.7-5.9 17-12.9 24.6-23.2 30-40.6 2.8-9.1 3.5-28.4 1.4-40-6.5-36.2-30.6-71.8-60.9-90.1-12.6-7.7-30-14.2-43.5-16.4-4.1-.6-8.6-1.4-10-1.7-2.6-.5-35.7-1.2-36.2-.8zm52.7 57c10.3 5 17.2 20.2 21.9 48.8 2.8 16.6 2.8 36.7.1 45.7-5.5 18.4-25.1 22.3-36.4 7.4-6.4-8.4-12.5-29-14.8-50.2-1-8.4-1-28.4 0-33.5 1.4-7.7 6.4-15 12.2-18 3.9-2.1 12.8-2.1 17-.2zm-111.2 16c8.5 3.5 16.6 18.8 20.3 38 .4 2.2.9 4.7 1 5.5.2.8.6 3.7 1 6.5.3 2.7.9 7.2 1.4 9.9 1.4 8.8.5 29.5-1.4 35.3-5 14.7-19.3 20.2-31.1 12.1-4.2-2.8-8.9-10.1-11.9-18.1-2.4-6.1-6.4-22.9-7.2-29.7-.2-1.9-.6-5.1-1-7-1.1-6.5-1.3-26.5-.3-32 2-10.6 6.5-17.6 13.3-20.6 4.1-1.8 11.5-1.7 15.9.1z"/></svg>