<?xml version="1.0" ?><!DOCTYPE svg  PUBLIC '-//W3C//DTD SVG 1.1//EN'  'http://www.w3.org/Graphics/SVG/1.1/DTD/svg11.dtd'><svg enable-background="new 0 0 24 24" height="24px" id="Layer_1" version="1.1" viewBox="0 0 24 24" width="24px" xml:space="preserve" xmlns="http://www.w3.org/2000/svg" xmlns:xlink="http://www.w3.org/1999/xlink"><g><g><g><rect height="8.016" transform="matrix(0.5335 0.8458 -0.8458 0.5335 11.975 -6.3075)" width="0.799" x="11.306" y="3.694"/></g></g><g><g><g><path d="M4.673,16.697c-2.59,0-4.697-2.107-4.697-4.697s2.107-4.697,4.697-4.697c2.59,0,4.698,2.107,4.698,4.697      S7.264,16.697,4.673,16.697z M4.673,8.102c-2.149,0-3.897,1.749-3.897,3.898c0,2.15,1.748,3.896,3.897,3.896      c2.15,0,3.898-1.746,3.898-3.896C8.571,9.851,6.823,8.102,4.673,8.102z"/></g></g><g><g><path d="M19.326,9.418c-2.59,0-4.697-2.107-4.697-4.698c0-2.59,2.107-4.697,4.697-4.697s4.697,2.107,4.697,4.697      C24.023,7.311,21.916,9.418,19.326,9.418z M19.326,0.823c-2.148,0-3.898,1.749-3.898,3.897c0,2.149,1.75,3.898,3.898,3.898      c2.15,0,3.898-1.749,3.898-3.898C23.225,2.571,21.477,0.823,19.326,0.823z"/></g></g><g><g><path d="M19.326,23.977c-2.59,0-4.697-2.107-4.697-4.697s2.107-4.697,4.697-4.697s4.697,2.107,4.697,4.697      S21.916,23.977,19.326,23.977z M19.326,15.381c-2.148,0-3.898,1.75-3.898,3.898s1.75,3.898,3.898,3.898      c2.15,0,3.898-1.75,3.898-3.898S21.477,15.381,19.326,15.381z"/></g></g><g><g><rect height="0.801" transform="matrix(0.8806 0.4739 -0.4739 0.8806 9.1913 -3.4443)" width="7.946" x="7.457" y="16.114"/></g></g></g></g></svg>