<?xml version="1.0" encoding="utf-8"?>
<!-- Generator: Adobe Illustrator 16.0.0, SVG Export Plug-In . SVG Version: 6.00 Build 0)  -->
<!DOCTYPE svg PUBLIC "-//W3C//DTD SVG 1.1//EN" "http://www.w3.org/Graphics/SVG/1.1/DTD/svg11.dtd">
<svg version="1.1" id="Layer_1" xmlns="http://www.w3.org/2000/svg" xmlns:xlink="http://www.w3.org/1999/xlink" x="0px" y="0px"
	 width="20.985px" height="20.903px" viewBox="1.507 1.548 20.985 20.903" enable-background="new 1.507 1.548 20.985 20.903"
	 xml:space="preserve">
<g>
	<g>
		<rect x="10.908" y="1.03" transform="matrix(-0.5331 -0.8461 0.8461 -0.5331 10.2931 23.7724)" width="1.597" height="16.032"/>
	</g>
</g>
<g>
	<g>
		<path d="M5.606,16.099c-2.26,0-4.099-1.839-4.099-4.099c0-2.26,1.838-4.099,4.099-4.099s4.1,1.838,4.1,4.099
			C9.706,14.26,7.867,16.099,5.606,16.099z"/>
	</g>
</g>
<g>
	<g>
		<path d="M18.394,9.747c-2.261,0-4.1-1.838-4.1-4.099s1.839-4.099,4.1-4.099c2.26,0,4.099,1.838,4.099,4.099
			S20.653,9.747,18.394,9.747z"/>
	</g>
</g>
<g>
	<g>
		<path d="M18.394,22.451c-2.261,0-4.1-1.838-4.1-4.099s1.839-4.099,4.1-4.099c2.26,0,4.099,1.838,4.099,4.099
			S20.653,22.451,18.394,22.451z"/>
	</g>
</g>
<g>
	<g>
		<rect x="3.484" y="14.37" transform="matrix(-0.8806 -0.4739 0.4739 -0.8806 14.3064 33.9468)" width="15.893" height="1.602"/>
	</g>
</g>
</svg>
